<?xml version="1.0" encoding="utf-8"?>
<!-- Generator: Adobe Illustrator 25.0.0, SVG Export Plug-In . SVG Version: 6.00 Build 0)  -->
<svg version="1.1" id="Layer_1" xmlns="http://www.w3.org/2000/svg" xmlns:xlink="http://www.w3.org/1999/xlink" x="0px" y="0px"
	 viewBox="0 0 803.8 803.8" style="enable-background:new 0 0 803.8 803.8;" xml:space="preserve">
<style type="text/css">
	.st0{fill:#BABBC6;}
	.st1{fill:#00FFFF;}
	.st2{fill:#F1B392;}
	.st3{fill:#FFFFFF;}
	.st4{fill:#00A69B;}
	.st5{fill:#29ABE2;}
	.st6{fill:#2E3192;}
	.st7{fill:#EDD9B4;}
	.st8{fill:#3B2F18;}
	.st9{opacity:0.14;}
	.st10{fill:#332113;}
	.st11{fill:#FE5829;}
	.st12{fill:#9194B7;}
	.st13{fill:#B6B8CF;}
	.st14{fill:#6D719F;}
	.st15{fill:#E2E3ED;}
	.st16{fill:none;stroke:#FFFFFF;stroke-miterlimit:10;}
	.st17{font-family:'ArialMT';}
	.st18{font-size:60px;}
	.st19{font-size:36px;}
</style>
<g>
	<g>
		<ellipse class="st0" cx="386.5" cy="732.5" rx="194" ry="13.6"/>
		<g>
			<path class="st1" d="M229.4,457.5c7.1-17.6,14.9-34.4,26-50.2c19.2-27.5,44.7-50,74.3-65.7c3.4-1.8,0.5-6.8-2.8-5.3l-25.3-54.1
				c0.1-0.1,0.1-0.1,0.2-0.2c3.1-2.3,0.1-7.6-3.1-5.2c-57,43.2-92.4,109.9-99.8,180.7H229.4z"/>
			<path class="st1" d="M424.1,341.6c29.6,15.7,55.1,38.2,74.3,65.7c11.1,15.8,19,32.6,26,50.2h30.4C547.4,386.7,512,320,455,276.8
				c-3.1-2.4-6.1,2.9-3.1,5.2c0.1,0.1,0.1,0.1,0.2,0.2l-25.3,54.1C423.6,334.8,420.7,339.8,424.1,341.6z"/>
			<path class="st1" d="M474.2,457.5c-8.3-82.2-24.1-171.4-24.4-172.8l-0.1-0.6H304.1l-0.1,0.6c-0.2,1.3-16.1,90.6-24.4,172.8H474.2
				z"/>
			<g>
				<rect x="346.2" y="245.4" class="st2" width="61.4" height="52.3"/>
			</g>
			<polygon class="st3" points="375.6,284.1 317.8,266.4 376.9,372.6 436.1,266.4 			"/>
			<g>
				<polygon class="st4" points="376.9,324.5 365.4,304.6 353.9,284.7 376.9,284.7 400,284.7 388.4,304.6 				"/>
			</g>
			<polygon class="st5" points="314.3,265 354.7,312.4 379.6,283.7 			"/>
			<polygon class="st5" points="374.2,283.7 399.2,312.4 439.6,265 			"/>
			<path class="st4" d="M376.9,312v-0.7c0,0-0.2,0.1-0.5,0.4c-0.3-0.2-0.5-0.4-0.5-0.4v0.7c-5.7,4.5-33.4,29.1,0,60.6v0.9
				c0.2-0.2,0.3-0.3,0.5-0.5c0.2,0.2,0.3,0.3,0.5,0.5v-0.9C410.3,341.1,382.7,316.5,376.9,312z"/>
			<path class="st5" d="M379.9,372.5C379.9,372.5,379.9,372.4,379.9,372.5c0-0.1,0-0.2,0-0.2c0-0.5-0.2-1.1-0.6-1.5
				c-19.7-35.3-39.3-70.6-59-105.9c-0.8-1.4-2.8-2-4.1-1.1c-11.6,7.5-23.2,14.9-34.9,22.4c-1.7,1.1-2.2,4.2,0,5.2
				c10.2,4.6,20.3,9.2,30.5,13.8c-7.5,5.6-15.1,11.1-22.6,16.7c-1.7,1.3-2.2,4,0,5.2c28.6,16,57.2,31.9,85.8,47.9
				c0.5,0.4,1,0.6,1.5,0.6c0,0,0.1,0,0.1,0c0,0,0.1,0,0.1,0c0.9,0,1.7-0.4,2.2-1C379.6,374.1,380,373.3,379.9,372.5z"/>
			<path class="st5" d="M472.5,286.2c-11.6-7.5-23.2-14.9-34.8-22.4c-1.4-0.9-3.4-0.3-4.1,1.1c-19.7,35.3-39.3,70.6-59,105.9
				c-0.4,0.5-0.5,1-0.6,1.5c0,0,0,0.1,0,0.1c0,0,0,0,0,0.1c0,0.9,0.3,1.6,0.9,2.2c0.6,0.6,1.3,1,2.2,1c0,0,0.1,0,0.1,0
				c0,0,0.1,0,0.1,0c0.5,0,1.1-0.2,1.5-0.6c28.6-16,57.2-31.9,85.8-47.9c2.2-1.2,1.7-3.9,0-5.2c-7.5-5.6-15.1-11.1-22.6-16.7
				c10.2-4.6,20.3-9.2,30.5-13.8C474.6,290.5,474.2,287.3,472.5,286.2z"/>
			<g>
				<path class="st4" d="M382.4,401.7c0,3-2.5,5.5-5.5,5.5c-3,0-5.5-2.5-5.5-5.5c0-3,2.5-5.5,5.5-5.5
					C380,396.2,382.4,398.7,382.4,401.7"/>
			</g>
			<g>
				<path class="st4" d="M382.4,434.2c0,3-2.5,5.5-5.5,5.5c-3,0-5.5-2.5-5.5-5.5c0-3,2.5-5.5,5.5-5.5
					C380,428.7,382.4,431.2,382.4,434.2"/>
			</g>
			<g>
				<path class="st6" d="M338,374.6c0-0.1,0-0.2,0-0.3c0.8-23.6-13.2-42.6-20.6-64.1c-3.8-11.1-5.8-23.4-1.9-34.8
					c4.2-11.9,16.2-21,29.1-18.2c2.7,0.6,3.8-3.6,1.1-4.1c-23-4.9-37.6,17.9-36.6,38.4c1.4,29.6,25.6,52.8,24.5,82.8c0,0,0,0,0,0.1
					c-8.1,0.6-14.4,7.4-14.4,15.6c0,8.6,7,15.7,15.6,15.7c8.6,0,15.7-7,15.7-15.7C350.7,382.4,345.2,376,338,374.6"/>
			</g>
			<g>
				<path class="st6" d="M449.4,404.1c0.9-14.4,1.5-30.3-6.7-42.9c-5.3-8.1-14.6-15.5-24.7-15c8.3-20.8,22.2-41.3,18.6-64.6
					c-2.7-17.3-17.7-32.4-36.1-28.4c-2.7,0.6-1.6,4.7,1.1,4.1c22.7-4.9,33.2,20.4,30.7,38.8c-2.4,18.2-12.9,34.1-19.3,51
					c-8.3,2.7-13.9,11.1-16.3,19.4c-4.6,15.3,1.1,31,6.5,45.3c-0.5,0.7-0.9,1.5-0.9,2.4c0,2.2,1.8,4,4,4c2.2,0,4-1.8,4-4
					c0-1.9-1.4-3.6-3.2-4c-4.3-11.5-9.1-23.7-7.7-36.2c1-9.1,6.2-21.3,16.3-23.3c10.7-2.1,20.7,7.3,25.2,16.2
					c5.7,11.2,4.9,24.7,4.1,36.9c-1.3,0.7-2.1,2-2.1,3.5c0,2.2,1.8,4,4,4c2.2,0,4-1.8,4-4C451.1,406,450.4,404.9,449.4,404.1"/>
			</g>
			<g>
				<path class="st7" d="M446.1,180.9c3.1-38.2,2.7-96.6-67.3-96.6c-0.2,0-0.3,0-0.5,0c-0.2,0-0.4,0-0.5,0
					c-70,0-70.4,58.4-67.3,96.6c-4.8-9.1-19-6.3-17.9,8c1.1,13.8,21.2,20.9,20.9,19.3c5.7,31.5,38.7,49.6,64.2,49.6c0,0,0,0,0,0
					c0,0,0,0,0.1,0c0.1,0,0.3,0,0.5,0c0.2,0,0.3,0,0.5,0c25.6,0,58.5-18.2,64.2-49.6c-0.3,1.6,19.8-5.5,20.9-19.3
					C465.1,174.6,450.9,171.8,446.1,180.9z"/>
				<g>
					<path class="st8" d="M430.4,91.5c-15.5-12.9-36.2-21.4-50.3-19.8c-14.1-1.6-34.8,6.9-50.3,19.8c-25.3,21-19.4,83.3-19.4,83.3
						s4.1-1.1,6.4,1.6c3.2,3.7,5.1,7.9,6,12.3c0.9,4.4,4.5,6.4,4.5,6.4s-6-29.9,0.2-43.2c3.8-8.3,7.2-17.3,18.7-25.9
						c7.6-5.7,21-7.3,33.9-7.1c12.8-0.2,26.3,1.4,33.8,7.1c11.6,8.7,14.9,17.7,18.8,25.9c6.2,13.3,0.2,43.2,0.2,43.2s3.6-2,4.5-6.4
						c0.9-4.5,2.8-8.7,6-12.3c2.4-2.6,6.4-1.6,6.4-1.6S455.7,112.5,430.4,91.5"/>
				</g>
				<g>
					<path class="st8" d="M341.6,120.1c2.8-6.6,9.2-18,26.2-22.4c5.1-1.3,21.3-3,27.9,0c6.5,3,9.8,7.2,11.7,12.5
						c1.9,5.4,1.1,22.3-24.2,24.7c-9.6,0.9-26,6-28.8,11.7c-4.7,9.4,7.1,17,7.1,17s-16-6.8-19.9-18
						C339.8,140.6,337.1,131,341.6,120.1"/>
				</g>
				<g>
					<g>
						<g class="st9">
							<path class="st3" d="M330,177c-2.4,7.8,1.6,26.6,17.6,25.5c14-1,21.3-5.7,24-13.4c7.1-20.2-1.8-19.6-14.9-20.8
								C342.7,167,332.3,169.2,330,177z"/>
						</g>
						<g class="st9">
							<path class="st3" d="M430.6,177.1c2.4,7.8-1.6,26.6-17.6,25.5c-14-1-21.3-5.7-24-13.3c-7.1-20.2,1.8-19.6,14.9-20.8
								C417.9,167.1,428.3,169.3,430.6,177.1z"/>
						</g>
						<g>
							<g class="st9">
								<polygon class="st3" points="336.5,199.3 331.5,191.2 343.8,168.1 353.1,168.4 								"/>
							</g>
							<g class="st9">
								<polygon class="st3" points="344.4,201.1 340.9,201 357.8,168.5 361.3,169 								"/>
							</g>
						</g>
						<g>
							<g class="st9">
								<polygon class="st3" points="397.7,199.4 391.6,193.6 404.9,168.2 414.3,168.5 								"/>
							</g>
							<g class="st9">
								<polygon class="st3" points="405.6,201.3 402,201.1 418.9,168.6 422.5,169.1 								"/>
							</g>
						</g>
						<g>
							<path d="M435.6,170c0-3.5-9.8-2.4-26-3c-11.2-0.4-19.9,1.2-23.7,4.8h-11.6c-3.7-3.6-12.5-5.3-23.7-4.8c-16.2,0.6-26-0.5-26,3
								c0,0.6-0.2,1.3,0.3,2.2c1.1,1.8,3,0,3.4,8.4c0,0,1,6.2,1.3,8.2c1.4,10.7,8.8,13.4,14.8,14.1c6.6,0.8,10.3,0,14.9-1.1
								c5.9-1.4,10.7-6.9,13.3-12.4c1.6-3.2,2.8-8.4,3.3-10.8h8.5c0.5,2.4,1.7,7.5,3.3,10.8c2.6,5.5,7.4,10.9,13.3,12.4
								c4.7,1.1,8.3,1.9,14.9,1.1c6-0.7,13.3-3.4,14.8-14.1c0.3-2.1,1.3-8.2,1.3-8.2c0.3-8.4,2.3-6.6,3.4-8.4
								C435.8,171.3,435.6,170.5,435.6,170z M372.6,179.4c0,0-0.3,5.5-2.4,9.8c-2.6,5.4-5.7,9.3-11.5,10.7c-4.7,1.1-8.2,1.8-14.8,1
								c-6-0.7-11.1-3.7-12.5-14.4c-0.3-2.1-0.6-6.7-0.6-6.7c-0.3-8.4,9.3-11.2,18.9-11.1C365.7,168.9,374.2,171.9,372.6,179.4z
								 M429.5,179.7c0,0-0.4,4.7-0.6,6.7c-1.4,10.8-6.5,13.7-12.5,14.4c-6.6,0.8-10.1,0.2-14.8-1c-5.9-1.4-8.9-5.3-11.5-10.7
								c-2.1-4.3-2.4-9.8-2.4-9.8c-1.6-7.5,6.9-10.5,22.9-10.7C420.2,168.5,429.8,171.3,429.5,179.7z"/>
						</g>
					</g>
					<g>
						<g>
							<g>
								<path class="st10" d="M352,172.3c4.1,0,7.4,3.8,7.4,8.4c0,4.6-3.3,8.4-7.4,8.4c-4.1,0-7.4-3.8-7.4-8.4
									C344.7,176.1,348,172.3,352,172.3z"/>
							</g>
							<g>
								<path class="st10" d="M411.8,172.3c4.1,0,7.4,3.8,7.4,8.4c0,4.6-3.3,8.4-7.4,8.4c-4.1,0-7.4-3.8-7.4-8.4
									C404.5,176.1,407.7,172.3,411.8,172.3z"/>
							</g>
						</g>
					</g>
					<g>
						<g>
							<path class="st8" d="M410.1,229.5c-1-5.6-3.7-9-7.5-10.8c-5.4-2.5-8.3-2.9-11.8-2.8c-5.9,0.2-12.6,1-12.6,1
								s-8.5-3.1-17.2-0.6c-9.1,2.6-14.1,9.1-15.4,11.6c-2.5,4.8,0.8,22.3,1.5,28.5c0.5,3.7,3.3,8.3,6.4,10.3
								c1.4,0.9,15.8,8.9,18.3,9c3,0.1,6.1,0.2,9.1,0.4c2.7,0.1,7.4-0.1,9.9-1.2c4.9-2,12.3-7.2,17-11.9
								C412.6,258.3,410.5,232,410.1,229.5z M384.1,241.9c-1.3,0-8.3-0.1-9.5-0.3c-1.9-0.3,5.9,11.6-4.9,7.5
								c-9.7-3.7-17.2-12.1-17.2-18c0-6.4,8.8-6.1,19.2-7.9c2.3-0.4,7-2.7,7-2.7s5.1,2.2,7.2,2.6c10.7,1.7,19.7,2.5,19.7,9
								c0,7-8.2,14.4-18.5,18C380.5,252.4,385.7,241.9,384.1,241.9z"/>
						</g>
					</g>
					<g>
						<path class="st3" d="M353.1,180.5c2.9,0,2.9-4.5,0-4.5C350.2,176,350.2,180.5,353.1,180.5L353.1,180.5z"/>
					</g>
					<g>
						<path class="st3" d="M409.8,182.9c2.9,0,2.9-4.5,0-4.5C406.9,178.4,406.9,182.9,409.8,182.9L409.8,182.9z"/>
					</g>
				</g>
			</g>
		</g>
		<g>
			<path class="st11" d="M531,424.3c-78.2-75.3-154.1,29.1-154.1,29.1S301.1,349,222.8,424.3C63.5,577.7,376.9,742.7,376.9,742.7
				S690.4,577.7,531,424.3z"/>
			<path class="st11" d="M531,424.3c-78.2-75.3-154.1,29.1-154.1,29.1S301.1,349,222.8,424.3C63.5,577.7,376.9,742.7,376.9,742.7
				S690.4,577.7,531,424.3z"/>
		</g>
		<g>
			<path class="st12" d="M681.1,600c-2.9-2.8-6.2-4.3-9.7-4.3c-5.4,0-9.8,3.6-12.2,6c-2.4-2.4-6.8-6-12.2-6c-3.5,0-6.7,1.4-9.7,4.3
				c-5.2,5-7.3,10.5-6.5,16.4c2.3,15.9,26.1,28.6,27.1,29.1l1.2,0.6l1.2-0.6c1-0.5,24.8-13.2,27.1-29.1
				C688.4,610.5,686.2,605,681.1,600z M647.1,601c5.4,0,10,6.2,10,6.2l2.1,2.9l2.1-2.9c0-0.1,4.7-6.2,10-6.2c2,0,4.1,0.9,6,2.8
				c3.9,3.8,5.5,7.7,4.9,11.9c-1.6,11.5-18.9,22.1-23.1,24.5c-4.1-2.4-21.5-13-23.1-24.5c-0.6-4.2,1-8.1,4.9-11.9
				C643.1,601.9,645,601,647.1,601z"/>
			<g>
				<path class="st13" d="M550.9,561.4c0,11.5-9.3,20.8-20.8,20.8c-11.5,0-20.8-9.3-20.8-20.8s9.3-20.8,20.8-20.8
					C541.6,540.6,550.9,549.9,550.9,561.4z"/>
				<path class="st14" d="M544.1,561.4c0,7.7-6.3,14-14,14c-7.7,0-14-6.3-14-14c0-7.7,6.3-14,14-14
					C537.9,547.4,544.1,553.6,544.1,561.4z"/>
				<g>
					<path class="st12" d="M667,649h-17.6c-18.5,0-33.5-15-33.5-33.5v-22.7c0-14.5-11.3-26.1-25.8-26.4l-56.5-1.4
						c-1.9,0-3.5-1.7-3.4-3.6l0,0c0-1.9,1.7-3.5,3.6-3.4l56.5,1.4c8.8,0.2,17,3.8,23.1,10.1c6.1,6.3,9.5,14.6,9.5,23.4v22.7
						c0,14.6,11.8,26.4,26.4,26.4H667c14.6,0,26.4-11.8,26.4-26.4V476.1h7.1v139.5C700.5,634,685.5,649,667,649z"/>
				</g>
				<path class="st12" d="M764.8,395.5c0-0.3-0.1-0.5-0.1-0.8c-0.8-3.6-3-6.9-6.2-8.9l-1.3-0.8l-45.7,0v10.6l42.2,0
					c0.3,0.4,0.5,0.8,0.6,1.3c0,0.1,0,0.2,0.1,0.3c0.4,2.4-0.5,4.8-2.3,6.6L697,458.2l-56.2-55.4c-0.3-0.3-0.5-0.6-0.7-0.9
					c-0.7-1.5-0.8-3.5-0.4-5.2c0.1-0.4,0.3-0.7,0.5-1.1l42.2,0V385l-45.7,0l-1.3,0.8c-3.1,2-5.2,4.9-6.1,8.4c-1,4-0.6,8.3,1,11.9
					c0.7,1.5,1.7,2.9,2.9,4.2l56.4,55.6c1.9,1.9,4.5,3,7.2,3c2.7,0,5.3-1.1,7.2-3l55.3-54.5C763.8,407.2,765.8,401.3,764.8,395.5z"
					/>
				<path class="st14" d="M711.6,400.1L711.6,400.1c-1.8,0-3.2-1.4-3.2-3.2v-13.4c0-1.8,1.4-3.2,3.2-3.2l0,0c1.8,0,3.2,1.4,3.2,3.2
					v13.4C714.8,398.7,713.3,400.1,711.6,400.1z"/>
				<path class="st14" d="M682.4,400.1L682.4,400.1c-1.8,0-3.2-1.4-3.2-3.2v-13.4c0-1.8,1.4-3.2,3.2-3.2l0,0c1.8,0,3.2,1.4,3.2,3.2
					v13.4C685.6,398.7,684.1,400.1,682.4,400.1z"/>
				<path class="st14" d="M726.2,444.2h-15.1L697,458.2l-14.2-13.9h-15.1l14.6,14.4v11.2c0,3.5,2.8,6.3,6.3,6.3h16.8
					c3.5,0,6.3-2.8,6.3-6.3v-11.2L726.2,444.2z"/>
			</g>
		</g>
	</g>
</g>
<path class="st15" d="M-66.1,56.2"/>
<g>
	<g>
		<path class="st16" d="M240.5,532.1"/>
	</g>
</g>
<text transform="matrix(1 0 0 1 218.2913 519.8254)" class="st3 st17 st18">SOVHYRIA</text>
<text transform="matrix(1 0 0 1 241.4049 595.5544)" class="st3 st17 st18">DIPLOMA</text>
<text transform="matrix(1 0 0 1 294.7554 669.1644)" class="st17 st19">PROJECT</text>
</svg>
